<svg width="16" height="16" viewBox="0 0 16 16" fill="currentColor" xmlns="http://www.w3.org/2000/svg">
<path fill-rule="evenodd" clip-rule="evenodd" d="M1.125 -0.000793457C0.977155 -0.000793457 0.830762 0.0283261 0.694175 0.0849022C0.557589 0.141478 0.433482 0.224403 0.328943 0.328943C0.224403 0.433482 0.141478 0.557589 0.0849022 0.694175C0.0283261 0.830762 -0.000793457 0.977155 -0.000793457 1.125C-0.000793457 1.27284 0.0283261 1.41923 0.0849022 1.55582C0.141478 1.6924 0.224437 1.81654 0.328977 1.92108L6.40907 8L0.328943 14.0789C0.224403 14.1835 0.141478 14.3076 0.0849022 14.4442C0.028326 14.5808 -0.000793457 14.7272 -0.000793457 14.875C-0.000793457 15.0228 0.028326 15.1692 0.0849022 15.3058C0.141478 15.4424 0.224403 15.5665 0.328943 15.671C0.433482 15.7756 0.557588 15.8585 0.694175 15.9151C0.830764 15.9717 0.977157 16.0008 1.125 16.0008C1.27283 16.0008 1.41923 15.9717 1.55582 15.9151C1.6924 15.8585 1.81654 15.7756 1.92108 15.671L8 9.59092L14.0789 15.671C14.1835 15.7756 14.3076 15.8585 14.4442 15.9151C14.5808 15.9717 14.7272 16.0008 14.875 16.0008C15.0228 16.0008 15.1692 15.9717 15.3058 15.9151C15.4424 15.8585 15.5665 15.7756 15.671 15.671C15.7756 15.5665 15.8585 15.4424 15.9151 15.3058C15.9717 15.1692 16.0008 15.0228 16.0008 14.875C16.0008 14.7272 15.9717 14.5808 15.9151 14.4442C15.8585 14.3076 15.7756 14.1834 15.671 14.0789L9.59092 8L15.671 1.92105C15.7756 1.81651 15.8585 1.6924 15.9151 1.55582C15.9717 1.41923 16.0008 1.27283 16.0008 1.125C16.0008 0.977157 15.9717 0.830764 15.9151 0.694175C15.8585 0.557588 15.7756 0.433482 15.671 0.328943C15.5665 0.224403 15.4424 0.141478 15.3058 0.0849022C15.1692 0.028326 15.0228 -0.000793457 14.875 -0.000793457C14.7272 -0.000793457 14.5808 0.028326 14.4442 0.0849022C14.3076 0.141478 14.1834 0.224437 14.0789 0.328977L8 6.40907L1.92105 0.328943C1.81651 0.224403 1.6924 0.141478 1.55582 0.0849022C1.41923 0.0283261 1.27284 -0.000793457 1.125 -0.000793457Z" fill="#687387"/>
</svg>
