<svg width="20" height="20" viewBox="0 0 20 20" fill="currentColor" xmlns="http://www.w3.org/2000/svg">
<path d="M16.0674 0.182595C15.9502 0.0654254 15.7913 -0.000396729 15.6256 -0.000396729C15.4598 -0.000396729 15.3009 0.0654254 15.1837 0.182595L13.1249 2.24135L17.7587 6.8751L19.8174 4.8176C19.8756 4.75954 19.9218 4.69057 19.9533 4.61464C19.9848 4.53871 20.0011 4.4573 20.0011 4.3751C20.0011 4.29289 19.9848 4.21148 19.9533 4.13555C19.9218 4.05962 19.8756 3.99065 19.8174 3.9326L16.0674 0.182595V0.182595ZM16.8749 7.75885L12.2412 3.1251L4.11619 11.2501H4.37494C4.5407 11.2501 4.69967 11.3159 4.81688 11.4332C4.93409 11.5504 4.99994 11.7093 4.99994 11.8751V12.5001H5.62494C5.7907 12.5001 5.94967 12.5659 6.06688 12.6832C6.18409 12.8004 6.24994 12.9593 6.24994 13.1251V13.7501H6.87494C7.0407 13.7501 7.19967 13.8159 7.31688 13.9332C7.43409 14.0504 7.49994 14.2093 7.49994 14.3751V15.0001H8.12494C8.2907 15.0001 8.44967 15.0659 8.56688 15.1832C8.68409 15.3004 8.74994 15.4593 8.74994 15.6251V15.8838L16.8749 7.75885V7.75885ZM7.53994 17.0938C7.51364 17.0239 7.50009 16.9498 7.49994 16.8751V16.2501H6.87494C6.70918 16.2501 6.55021 16.1842 6.433 16.067C6.31579 15.9498 6.24994 15.7909 6.24994 15.6251V15.0001H5.62494C5.45918 15.0001 5.30021 14.9342 5.183 14.817C5.06579 14.6998 4.99994 14.5409 4.99994 14.3751V13.7501H4.37494C4.20918 13.7501 4.05021 13.6842 3.933 13.567C3.81579 13.4498 3.74994 13.2909 3.74994 13.1251V12.5001H3.12494C3.05022 12.5 2.97612 12.4864 2.90619 12.4601L2.68244 12.6826C2.62288 12.7426 2.5761 12.814 2.54494 12.8926L0.0449407 19.1426C-0.000522637 19.2562 -0.011652 19.3806 0.0129323 19.5004C0.0375166 19.6203 0.0967335 19.7303 0.183242 19.8168C0.26975 19.9033 0.379745 19.9625 0.49959 19.9871C0.619435 20.0117 0.743861 20.0006 0.857441 19.9551L7.10744 17.4551C7.18602 17.4239 7.25746 17.3772 7.31744 17.3176L7.53994 17.0951V17.0938Z"/>
</svg>
