<svg width="20" height="20" viewBox="0 0 20 20" fill="currentColor" xmlns="http://www.w3.org/2000/svg">
<g clip-path="url(#clip0_201_1304)">
<path d="M9.5 0.5C4.5275 0.5 0.5 4.5275 0.5 9.5C0.5 13.4825 3.07625 16.8463 6.65375 18.0387C7.10375 18.1175 7.2725 17.8475 7.2725 17.6112C7.2725 17.3975 7.26125 16.6888 7.26125 15.935C5 16.3513 4.415 15.3837 4.235 14.8775C4.13375 14.6187 3.695 13.82 3.3125 13.6062C2.9975 13.4375 2.5475 13.0212 3.30125 13.01C4.01 12.9987 4.51625 13.6625 4.685 13.9325C5.495 15.2937 6.78875 14.9113 7.30625 14.675C7.385 14.09 7.62125 13.6962 7.88 13.4712C5.8775 13.2463 3.785 12.47 3.785 9.0275C3.785 8.04875 4.13375 7.23875 4.7075 6.60875C4.6175 6.38375 4.3025 5.46125 4.7975 4.22375C4.7975 4.22375 5.55125 3.9875 7.2725 5.14625C7.9925 4.94375 8.7575 4.8425 9.5225 4.8425C10.2875 4.8425 11.0525 4.94375 11.7725 5.14625C13.4938 3.97625 14.2475 4.22375 14.2475 4.22375C14.7425 5.46125 14.4275 6.38375 14.3375 6.60875C14.9113 7.23875 15.26 8.0375 15.26 9.0275C15.26 12.4812 13.1562 13.2463 11.1538 13.4712C11.48 13.7525 11.7613 14.2925 11.7613 15.1363C11.7613 16.34 11.75 17.3075 11.75 17.6112C11.75 17.8475 11.9187 18.1287 12.3688 18.0387C14.1555 17.4357 15.7081 16.2875 16.808 14.7557C17.9079 13.2239 18.4997 11.3858 18.5 9.5C18.5 4.5275 14.4725 0.5 9.5 0.5Z" fill="currentColor"/>
</g>
</svg>
